<svg xmlns="http://www.w3.org/2000/svg" xmlns:xlink="http://www.w3.org/1999/xlink" width="300" height="300"><defs>
    <marker id="markerArrow" markerWidth="13" markerHeight="13" refX="2" refY="2" orient="auto">
        <path d="M0,0 L6,2 L0,4 L0,0" fill="#656598"/>
    </marker>
</defs>

<line x1="50" y1="250" x2="238" y2="202" stroke="#afcfee" marker-end="url(#markerArrow)"></line>
<line x1="50" y1="250" x2="239" y2="154" stroke="#afcfee" marker-end="url(#markerArrow)"></line>
<line x1="50" y1="250" x2="240" y2="106" stroke="#afcfee" marker-end="url(#markerArrow)"></line>
<line x1="50" y1="200" x2="238" y2="200" stroke="#afcfee" marker-end="url(#markerArrow)"></line>
<line x1="50" y1="200" x2="238" y2="152" stroke="#afcfee" marker-end="url(#markerArrow)"></line>
<line x1="50" y1="200" x2="239" y2="104" stroke="#afcfee" marker-end="url(#markerArrow)"></line>
<line x1="50" y1="150" x2="238" y2="197" stroke="#afcfee" marker-end="url(#markerArrow)"></line>
<line x1="50" y1="150" x2="238" y2="150" stroke="#afcfee" marker-end="url(#markerArrow)"></line>
<line x1="50" y1="150" x2="238" y2="102" stroke="#afcfee" marker-end="url(#markerArrow)"></line>
<line x1="50" y1="100" x2="239" y2="195" stroke="#afcfee" marker-end="url(#markerArrow)"></line>
<line x1="50" y1="100" x2="238" y2="147" stroke="#afcfee" marker-end="url(#markerArrow)"></line>
<line x1="50" y1="100" x2="238" y2="100" stroke="#afcfee" marker-end="url(#markerArrow)"></line>
<line x1="50" y1="50" x2="240" y2="194" stroke="#afcfee" marker-end="url(#markerArrow)"></line>
<line x1="50" y1="50" x2="239" y2="145" stroke="#afcfee" marker-end="url(#markerArrow)"></line>
<line x1="50" y1="50" x2="238" y2="97" stroke="#afcfee" marker-end="url(#markerArrow)"></line>
<circle cx="50" cy="250" r="10" stroke="black" fill="white"></circle>
<circle cx="50" cy="200" r="10" stroke="black" fill="white"></circle>
<circle cx="50" cy="150" r="10" stroke="black" fill="white"></circle>
<circle cx="50" cy="100" r="10" stroke="black" fill="white"></circle>
<circle cx="50" cy="50" r="10" stroke="black" fill="white"></circle>
<text x="45" y="253" fill="grey" font-size="0.8em">x<tspan baseline-shift="sub" font-size="0.7em">0</tspan></text>
<text x="45" y="203" fill="grey" font-size="0.8em">x<tspan baseline-shift="sub" font-size="0.7em">1</tspan></text>
<text x="45" y="153" fill="grey" font-size="0.8em">x<tspan baseline-shift="sub" font-size="0.7em">2</tspan></text>
<text x="45" y="103" fill="grey" font-size="0.8em">x<tspan baseline-shift="sub" font-size="0.7em">3</tspan></text>
<text x="45" y="53" fill="grey" font-size="0.8em">x<tspan baseline-shift="sub" font-size="0.7em">4</tspan></text>
<circle cx="250" cy="200" r="10" stroke="purple" fill="pink"></circle>
<circle cx="250" cy="150" r="10" stroke="black" fill="white"></circle>
<circle cx="250" cy="100" r="10" stroke="black" fill="white"></circle>
<text x="245" y="203" fill="grey" font-size="0.8em">a<tspan baseline-shift="sub" font-size="0.7em">i</tspan></text>
<line x1="260" y1="200" x2="290" y2="200" stroke="#afcfee" marker-end="url(#markerArrow)"></line>
<line x1="260" y1="150" x2="290" y2="150" stroke="#afcfee" marker-end="url(#markerArrow)"></line>
<line x1="260" y1="100" x2="290" y2="100" stroke="#afcfee" marker-end="url(#markerArrow)"></line>
</svg>
